<?xml version="1.0" standalone="no"?>
<!DOCTYPE svg PUBLIC "-//W3C//DTD SVG 20010904//EN"
 "http://www.w3.org/TR/2001/REC-SVG-20010904/DTD/svg10.dtd">
<svg version="1.0" xmlns="http://www.w3.org/2000/svg"
 width="1185.000000pt" height="1185.000000pt" viewBox="0 0 1185.000000 1185.000000"
 preserveAspectRatio="xMidYMid meet">
<metadata>
Created by potrace 1.11, written by Peter Selinger 2001-2013
</metadata>
<g transform="translate(0.000000,1185.000000) scale(0.100000,-0.100000)"
fill="#000000" stroke="none">
<path d="M5320 11030 c0 -19 -7 -20 -140 -20 -133 0 -140 -1 -140 -20 0 -19
-7 -20 -100 -20 -93 0 -100 -1 -100 -20 0 -19 -7 -20 -100 -20 -93 0 -100 -1
-100 -20 0 -18 -7 -20 -60 -20 -53 0 -60 -2 -60 -20 0 -18 -7 -20 -80 -20 -73
0 -80 -2 -80 -20 0 -18 -7 -20 -60 -20 -53 0 -60 -2 -60 -20 0 -18 -7 -20 -60
-20 -53 0 -60 -2 -60 -20 0 -17 -7 -20 -40 -20 -33 0 -40 -3 -40 -20 0 -18 -7
-20 -60 -20 -53 0 -60 -2 -60 -20 0 -17 -7 -20 -40 -20 -33 0 -40 -3 -40 -20
0 -17 -7 -20 -40 -20 -33 0 -40 -3 -40 -20 0 -17 -7 -20 -40 -20 -33 0 -40 -3
-40 -20 0 -17 -7 -20 -40 -20 -33 0 -40 -3 -40 -20 0 -17 -7 -20 -40 -20 -33
0 -40 -3 -40 -20 0 -17 -7 -20 -40 -20 -33 0 -40 -3 -40 -20 0 -17 -7 -20 -40
-20 -33 0 -40 -3 -40 -20 0 -13 -7 -20 -20 -20 -13 0 -20 -7 -20 -20 0 -17 -7
-20 -40 -20 -33 0 -40 -3 -40 -20 0 -17 -7 -20 -40 -20 -33 0 -40 -3 -40 -20
0 -13 -7 -20 -20 -20 -13 0 -20 -7 -20 -20 0 -17 -7 -20 -40 -20 -33 0 -40 -3
-40 -20 0 -13 -7 -20 -20 -20 -13 0 -20 -7 -20 -20 0 -17 -7 -20 -40 -20 -33
0 -40 -3 -40 -20 0 -13 -7 -20 -20 -20 -13 0 -20 -7 -20 -20 0 -13 -7 -20 -20
-20 -13 0 -20 -7 -20 -20 0 -17 -7 -20 -40 -20 -33 0 -40 -3 -40 -20 0 -13 -7
-20 -20 -20 -13 0 -20 -7 -20 -20 0 -13 -7 -20 -20 -20 -13 0 -20 -7 -20 -20
0 -13 -7 -20 -20 -20 -13 0 -20 -7 -20 -20 0 -17 -7 -20 -40 -20 -33 0 -40 -3
-40 -20 0 -13 -7 -20 -20 -20 -13 0 -20 -7 -20 -20 0 -13 -7 -20 -20 -20 -13
0 -20 -7 -20 -20 0 -13 -7 -20 -20 -20 -13 0 -20 -7 -20 -20 0 -13 -7 -20 -20
-20 -13 0 -20 -7 -20 -20 0 -13 -7 -20 -20 -20 -13 0 -20 -7 -20 -20 0 -13 -7
-20 -20 -20 -13 0 -20 -7 -20 -20 0 -13 -7 -20 -20 -20 -13 0 -20 -7 -20 -20
0 -13 -7 -20 -20 -20 -13 0 -20 -7 -20 -20 0 -13 -7 -20 -20 -20 -13 0 -20 -7
-20 -20 0 -13 -7 -20 -20 -20 -13 0 -20 -7 -20 -20 0 -13 -7 -20 -20 -20 -13
0 -20 -7 -20 -20 0 -13 -7 -20 -20 -20 -13 0 -20 -7 -20 -20 0 -13 -7 -20 -20
-20 -13 0 -20 -7 -20 -20 0 -13 -7 -20 -20 -20 -17 0 -20 -7 -20 -40 0 -33 -3
-40 -20 -40 -13 0 -20 -7 -20 -20 0 -13 -7 -20 -20 -20 -13 0 -20 -7 -20 -20
0 -13 -7 -20 -20 -20 -13 0 -20 -7 -20 -20 0 -13 -7 -20 -20 -20 -17 0 -20 -7
-20 -40 0 -33 -3 -40 -20 -40 -13 0 -20 -7 -20 -20 0 -13 -7 -20 -20 -20 -13
0 -20 -7 -20 -20 0 -13 -7 -20 -20 -20 -17 0 -20 -7 -20 -40 0 -33 -3 -40 -20
-40 -13 0 -20 -7 -20 -20 0 -13 -7 -20 -20 -20 -17 0 -20 -7 -20 -40 0 -33 -3
-40 -20 -40 -13 0 -20 -7 -20 -20 0 -13 -7 -20 -20 -20 -17 0 -20 -7 -20 -40
0 -33 -3 -40 -20 -40 -17 0 -20 -7 -20 -40 0 -33 -3 -40 -20 -40 -13 0 -20 -7
-20 -20 0 -13 -7 -20 -20 -20 -17 0 -20 -7 -20 -40 0 -33 -3 -40 -20 -40 -17
0 -20 -7 -20 -40 0 -33 -3 -40 -20 -40 -17 0 -20 -7 -20 -40 0 -33 -3 -40 -20
-40 -17 0 -20 -7 -20 -40 0 -33 -3 -40 -20 -40 -17 0 -20 -7 -20 -40 0 -33 -3
-40 -20 -40 -17 0 -20 -7 -20 -40 0 -33 -3 -40 -20 -40 -17 0 -20 -7 -20 -40
0 -33 -3 -40 -20 -40 -18 0 -20 -7 -20 -60 0 -53 -2 -60 -20 -60 -17 0 -20 -7
-20 -40 0 -33 -3 -40 -20 -40 -18 0 -20 -7 -20 -60 0 -53 -2 -60 -20 -60 -18
0 -20 -7 -20 -60 0 -53 -2 -60 -20 -60 -18 0 -20 -7 -20 -80 0 -73 -2 -80 -20
-80 -18 0 -20 -7 -20 -60 0 -53 -2 -60 -20 -60 -19 0 -20 -7 -20 -100 0 -93
-1 -100 -20 -100 -19 0 -20 -7 -20 -100 0 -93 -1 -100 -20 -100 -19 0 -20 -7
-20 -140 0 -133 -1 -140 -20 -140 -20 0 -20 -7 -20 -600 0 -593 0 -600 20
-600 19 0 20 -7 20 -140 0 -133 1 -140 20 -140 19 0 20 -7 20 -100 0 -93 1
-100 20 -100 18 0 20 -7 20 -80 0 -73 2 -80 20 -80 18 0 20 -7 20 -80 0 -73 2
-80 20 -80 18 0 20 -7 20 -60 0 -53 2 -60 20 -60 18 0 20 -7 20 -60 0 -53 2
-60 20 -60 18 0 20 -7 20 -60 0 -53 2 -60 20 -60 18 0 20 -7 20 -60 0 -53 2
-60 20 -60 17 0 20 -7 20 -40 0 -33 3 -40 20 -40 18 0 20 -7 20 -60 0 -53 2
-60 20 -60 17 0 20 -7 20 -40 0 -33 3 -40 20 -40 17 0 20 -7 20 -40 0 -33 3
-40 20 -40 17 0 20 -7 20 -40 0 -33 3 -40 20 -40 17 0 20 -7 20 -40 0 -33 3
-40 20 -40 17 0 20 -7 20 -40 0 -33 3 -40 20 -40 17 0 20 -7 20 -40 0 -33 3
-40 20 -40 13 0 20 -7 20 -20 0 -13 7 -20 20 -20 17 0 20 -7 20 -40 0 -33 3
-40 20 -40 17 0 20 -7 20 -40 0 -33 3 -40 20 -40 13 0 20 -7 20 -20 0 -13 7
-20 20 -20 17 0 20 -7 20 -40 0 -33 3 -40 20 -40 13 0 20 -7 20 -20 0 -13 7
-20 20 -20 13 0 20 -7 20 -20 0 -13 7 -20 20 -20 17 0 20 -7 20 -40 0 -33 3
-40 20 -40 13 0 20 -7 20 -20 0 -13 7 -20 20 -20 17 0 20 -7 20 -40 0 -33 3
-40 20 -40 13 0 20 -7 20 -20 0 -13 7 -20 20 -20 13 0 20 -7 20 -20 0 -13 7
-20 20 -20 13 0 20 -7 20 -20 0 -13 7 -20 20 -20 13 0 20 -7 20 -20 0 -13 7
-20 20 -20 17 0 20 -7 20 -40 0 -33 3 -40 20 -40 13 0 20 -7 20 -20 0 -13 7
-20 20 -20 13 0 20 -7 20 -20 0 -13 7 -20 20 -20 13 0 20 -7 20 -20 0 -13 7
-20 20 -20 13 0 20 -7 20 -20 0 -13 7 -20 20 -20 13 0 20 -7 20 -20 0 -13 7
-20 20 -20 13 0 20 -7 20 -20 0 -13 7 -20 20 -20 13 0 20 -7 20 -20 0 -13 7
-20 20 -20 13 0 20 -7 20 -20 0 -13 7 -20 20 -20 13 0 20 -7 20 -20 0 -13 7
-20 20 -20 13 0 20 -7 20 -20 0 -13 7 -20 20 -20 13 0 20 -7 20 -20 0 -13 7
-20 20 -20 13 0 20 -7 20 -20 0 -17 7 -20 40 -20 33 0 40 -3 40 -20 0 -13 7
-20 20 -20 13 0 20 -7 20 -20 0 -13 7 -20 20 -20 13 0 20 -7 20 -20 0 -13 7
-20 20 -20 13 0 20 -7 20 -20 0 -17 7 -20 40 -20 33 0 40 -3 40 -20 0 -13 7
-20 20 -20 13 0 20 -7 20 -20 0 -13 7 -20 20 -20 13 0 20 -7 20 -20 0 -17 7
-20 40 -20 33 0 40 -3 40 -20 0 -13 7 -20 20 -20 13 0 20 -7 20 -20 0 -13 7
-20 20 -20 13 0 20 -7 20 -20 0 -17 7 -20 40 -20 33 0 40 -3 40 -20 0 -13 7
-20 20 -20 13 0 20 -7 20 -20 0 -17 7 -20 40 -20 33 0 40 -3 40 -20 0 -17 7
-20 40 -20 33 0 40 -3 40 -20 0 -13 7 -20 20 -20 13 0 20 -7 20 -20 0 -17 7
-20 40 -20 33 0 40 -3 40 -20 0 -17 7 -20 40 -20 33 0 40 -3 40 -20 0 -17 7
-20 40 -20 33 0 40 -3 40 -20 0 -17 7 -20 40 -20 33 0 40 -3 40 -20 0 -17 7
-20 40 -20 33 0 40 -3 40 -20 0 -17 7 -20 40 -20 33 0 40 -3 40 -20 0 -18 7
-20 60 -20 53 0 60 -2 60 -20 0 -17 7 -20 40 -20 33 0 40 -3 40 -20 0 -18 7
-20 60 -20 53 0 60 -2 60 -20 0 -18 7 -20 60 -20 53 0 60 -2 60 -20 0 -18 7
-20 60 -20 53 0 60 -2 60 -20 0 -18 7 -20 60 -20 53 0 60 -2 60 -20 0 -18 7
-20 80 -20 73 0 80 -2 80 -20 0 -19 7 -20 100 -20 93 0 100 -1 100 -20 0 -19
7 -20 120 -20 113 0 120 -1 120 -20 0 -19 7 -20 160 -20 153 0 160 -1 160 -20
0 -20 7 -20 480 -20 473 0 480 0 480 20 0 19 7 20 160 20 153 0 160 1 160 20
0 19 7 20 120 20 113 0 120 1 120 20 0 19 7 20 100 20 93 0 100 1 100 20 0 18
7 20 80 20 73 0 80 2 80 20 0 18 7 20 60 20 53 0 60 2 60 20 0 18 7 20 60 20
53 0 60 2 60 20 0 18 7 20 60 20 53 0 60 2 60 20 0 17 7 20 40 20 33 0 40 3
40 20 0 18 7 20 60 20 53 0 60 2 60 20 0 17 7 20 40 20 33 0 40 3 40 20 0 18
7 20 60 20 53 0 60 2 60 20 0 17 7 20 40 20 33 0 40 3 40 20 0 17 7 20 40 20
33 0 40 3 40 20 0 17 7 20 40 20 33 0 40 3 40 20 0 13 7 20 20 20 13 0 20 7
20 20 0 17 7 20 40 20 33 0 40 3 40 20 0 17 7 20 40 20 33 0 40 3 40 20 0 17
7 20 40 20 33 0 40 3 40 20 0 13 7 20 20 20 13 0 20 7 20 20 0 17 7 20 40 20
33 0 40 3 40 20 0 13 7 20 20 20 13 0 20 7 20 20 0 17 7 20 40 20 33 0 40 3
40 20 0 13 7 20 20 20 13 0 20 7 20 20 0 17 7 20 40 20 33 0 40 3 40 20 0 13
7 20 20 20 13 0 20 7 20 20 0 13 7 20 20 20 13 0 20 7 20 20 0 13 7 20 20 20
13 0 20 7 20 20 0 17 7 20 40 20 33 0 40 3 40 20 0 13 7 20 20 20 13 0 20 7
20 20 0 13 7 20 20 20 13 0 20 7 20 20 0 13 7 20 20 20 13 0 20 7 20 20 0 13
7 20 20 20 13 0 20 7 20 20 0 13 7 20 20 20 13 0 20 7 20 20 0 13 7 20 20 20
13 0 20 7 20 20 0 17 7 20 40 20 33 0 40 3 40 20 0 13 7 20 20 20 13 0 20 7
20 20 0 13 7 20 20 20 13 0 20 7 20 20 0 13 7 20 20 20 13 0 20 7 20 20 0 13
7 20 20 20 17 0 20 7 20 40 0 33 3 40 20 40 13 0 20 7 20 20 0 13 7 20 20 20
13 0 20 7 20 20 0 13 7 20 20 20 13 0 20 7 20 20 0 13 7 20 20 20 13 0 20 7
20 20 0 13 7 20 20 20 13 0 20 7 20 20 0 13 7 20 20 20 13 0 20 7 20 20 0 13
7 20 20 20 17 0 20 7 20 40 0 33 3 40 20 40 13 0 20 7 20 20 0 13 7 20 20 20
13 0 20 7 20 20 0 13 7 20 20 20 13 0 20 7 20 20 0 13 7 20 20 20 17 0 20 7
20 40 0 33 3 40 20 40 13 0 20 7 20 20 0 13 7 20 20 20 17 0 20 7 20 40 0 33
3 40 20 40 13 0 20 7 20 20 0 13 7 20 20 20 17 0 20 7 20 40 0 33 3 40 20 40
13 0 20 7 20 20 0 13 7 20 20 20 17 0 20 7 20 40 0 33 3 40 20 40 17 0 20 7
20 40 0 33 3 40 20 40 17 0 20 7 20 40 0 33 3 40 20 40 13 0 20 7 20 20 0 13
7 20 20 20 17 0 20 7 20 40 0 33 3 40 20 40 17 0 20 7 20 40 0 33 3 40 20 40
17 0 20 7 20 40 0 33 3 40 20 40 18 0 20 7 20 60 0 53 2 60 20 60 17 0 20 7
20 40 0 33 3 40 20 40 18 0 20 7 20 60 0 53 2 60 20 60 17 0 20 7 20 40 0 33
3 40 20 40 18 0 20 7 20 60 0 53 2 60 20 60 18 0 20 7 20 60 0 53 2 60 20 60
18 0 20 7 20 60 0 53 2 60 20 60 18 0 20 7 20 80 0 73 2 80 20 80 19 0 20 7
20 100 0 93 1 100 20 100 19 0 20 7 20 120 0 113 1 120 20 120 19 0 20 7 20
160 0 153 1 160 20 160 20 0 20 7 20 480 0 473 0 480 -20 480 -19 0 -20 7 -20
160 0 153 -1 160 -20 160 -19 0 -20 7 -20 120 0 113 -1 120 -20 120 -19 0 -20
7 -20 100 0 93 -1 100 -20 100 -18 0 -20 7 -20 80 0 73 -2 80 -20 80 -18 0
-20 7 -20 60 0 53 -2 60 -20 60 -18 0 -20 7 -20 60 0 53 -2 60 -20 60 -18 0
-20 7 -20 60 0 53 -2 60 -20 60 -18 0 -20 7 -20 60 0 53 -2 60 -20 60 -17 0
-20 7 -20 40 0 33 -3 40 -20 40 -18 0 -20 7 -20 60 0 53 -2 60 -20 60 -17 0
-20 7 -20 40 0 33 -3 40 -20 40 -17 0 -20 7 -20 40 0 33 -3 40 -20 40 -17 0
-20 7 -20 40 0 33 -3 40 -20 40 -17 0 -20 7 -20 40 0 33 -3 40 -20 40 -17 0
-20 7 -20 40 0 33 -3 40 -20 40 -17 0 -20 7 -20 40 0 33 -3 40 -20 40 -13 0
-20 7 -20 20 0 13 -7 20 -20 20 -17 0 -20 7 -20 40 0 33 -3 40 -20 40 -17 0
-20 7 -20 40 0 33 -3 40 -20 40 -13 0 -20 7 -20 20 0 13 -7 20 -20 20 -17 0
-20 7 -20 40 0 33 -3 40 -20 40 -13 0 -20 7 -20 20 0 13 -7 20 -20 20 -13 0
-20 7 -20 20 0 13 -7 20 -20 20 -17 0 -20 7 -20 40 0 33 -3 40 -20 40 -13 0
-20 7 -20 20 0 13 -7 20 -20 20 -13 0 -20 7 -20 20 0 13 -7 20 -20 20 -17 0
-20 7 -20 40 0 33 -3 40 -20 40 -13 0 -20 7 -20 20 0 13 -7 20 -20 20 -13 0
-20 7 -20 20 0 13 -7 20 -20 20 -13 0 -20 7 -20 20 0 13 -7 20 -20 20 -17 0
-20 7 -20 40 0 33 -3 40 -20 40 -13 0 -20 7 -20 20 0 13 -7 20 -20 20 -13 0
-20 7 -20 20 0 13 -7 20 -20 20 -13 0 -20 7 -20 20 0 13 -7 20 -20 20 -13 0
-20 7 -20 20 0 13 -7 20 -20 20 -13 0 -20 7 -20 20 0 13 -7 20 -20 20 -13 0
-20 7 -20 20 0 13 -7 20 -20 20 -13 0 -20 7 -20 20 0 13 -7 20 -20 20 -13 0
-20 7 -20 20 0 13 -7 20 -20 20 -13 0 -20 7 -20 20 0 13 -7 20 -20 20 -13 0
-20 7 -20 20 0 13 -7 20 -20 20 -13 0 -20 7 -20 20 0 13 -7 20 -20 20 -13 0
-20 7 -20 20 0 17 -7 20 -40 20 -33 0 -40 3 -40 20 0 13 -7 20 -20 20 -13 0
-20 7 -20 20 0 13 -7 20 -20 20 -13 0 -20 7 -20 20 0 13 -7 20 -20 20 -13 0
-20 7 -20 20 0 13 -7 20 -20 20 -13 0 -20 7 -20 20 0 17 -7 20 -40 20 -33 0
-40 3 -40 20 0 13 -7 20 -20 20 -13 0 -20 7 -20 20 0 17 -7 20 -40 20 -33 0
-40 3 -40 20 0 13 -7 20 -20 20 -13 0 -20 7 -20 20 0 13 -7 20 -20 20 -13 0
-20 7 -20 20 0 17 -7 20 -40 20 -33 0 -40 3 -40 20 0 13 -7 20 -20 20 -13 0
-20 7 -20 20 0 17 -7 20 -40 20 -33 0 -40 3 -40 20 0 17 -7 20 -40 20 -33 0
-40 3 -40 20 0 13 -7 20 -20 20 -13 0 -20 7 -20 20 0 17 -7 20 -40 20 -33 0
-40 3 -40 20 0 17 -7 20 -40 20 -33 0 -40 3 -40 20 0 17 -7 20 -40 20 -33 0
-40 3 -40 20 0 17 -7 20 -40 20 -33 0 -40 3 -40 20 0 17 -7 20 -40 20 -33 0
-40 3 -40 20 0 17 -7 20 -40 20 -33 0 -40 3 -40 20 0 18 -7 20 -60 20 -53 0
-60 2 -60 20 0 17 -7 20 -40 20 -33 0 -40 3 -40 20 0 18 -7 20 -60 20 -53 0
-60 2 -60 20 0 18 -7 20 -60 20 -53 0 -60 2 -60 20 0 18 -7 20 -60 20 -53 0
-60 2 -60 20 0 18 -7 20 -60 20 -53 0 -60 2 -60 20 0 18 -7 20 -80 20 -73 0
-80 2 -80 20 0 18 -7 20 -80 20 -73 0 -80 2 -80 20 0 19 -7 20 -100 20 -93 0
-100 1 -100 20 0 19 -7 20 -140 20 -133 0 -140 1 -140 20 0 20 -7 20 -600 20
-593 0 -600 0 -600 -20z m1100 -285 c987 -108 1851 -475 2620 -1113 148 -123
459 -434 582 -582 640 -772 1007 -1636 1115 -2630 13 -124 17 -246 17 -490 0
-348 -12 -518 -59 -797 -207 -1228 -850 -2290 -1855 -3065 -47 -36 -152 -110
-235 -165 -663 -442 -1384 -702 -2195 -790 -232 -25 -748 -25 -980 0 -993 108
-1859 475 -2630 1115 -148 123 -459 434 -582 582 -651 784 -1014 1653 -1120
2680 -19 188 -16 735 5 930 111 1001 474 1858 1115 2630 123 148 434 459 582
582 827 686 1776 1064 2845 1132 134 8 637 -4 775 -19z"/>
<path d="M4640 9850 c-249 -53 -473 -183 -677 -391 -187 -192 -292 -359 -558
-890 -294 -585 -346 -660 -766 -1114 -190 -205 -291 -328 -376 -457 -64 -97
-148 -264 -176 -348 -45 -134 -67 -329 -48 -422 6 -29 13 -69 16 -88 7 -45 37
-132 50 -146 6 -6 19 -31 30 -55 11 -24 26 -49 34 -55 8 -6 11 -16 7 -22 -4
-7 -3 -12 3 -12 6 0 39 -29 75 -65 35 -36 67 -65 71 -65 3 0 18 -11 33 -25 15
-14 33 -25 41 -25 8 0 22 -6 30 -14 40 -35 265 -56 293 -28 7 7 32 12 56 12
47 0 142 27 142 41 0 5 7 6 15 3 9 -4 15 0 15 7 1 27 28 -22 40 -71 17 -69 48
-95 117 -95 49 0 58 3 84 33 31 34 36 66 17 106 -17 38 -50 55 -195 101 -167
54 -223 88 -259 161 -23 47 -26 63 -22 131 4 88 24 139 75 190 74 73 188 109
322 100 193 -12 309 -103 324 -255 l4 -42 -134 0 c-128 0 -133 1 -133 21 0 12
-16 37 -35 56 -33 33 -39 35 -82 30 -59 -6 -93 -41 -93 -94 0 -28 8 -43 38
-72 31 -32 55 -42 154 -70 221 -63 289 -124 296 -267 4 -61 0 -81 -21 -127
-49 -107 -142 -170 -280 -189 -45 -7 -83 -13 -85 -14 -2 -1 35 -116 82 -255
149 -443 181 -615 173 -914 -5 -200 -13 -256 -77 -610 -60 -333 -80 -491 -80
-647 0 -77 4 -158 9 -181 5 -23 17 -80 26 -127 9 -47 24 -105 32 -130 32 -92
97 -230 128 -268 44 -55 172 -179 205 -199 149 -89 266 -123 423 -123 96 0
253 22 287 39 9 5 31 12 50 16 19 4 41 11 50 15 8 4 26 12 40 18 92 39 257
123 285 145 5 4 42 30 80 58 39 27 90 66 115 87 48 39 367 357 535 533 117
122 231 230 272 256 15 10 38 28 49 41 12 12 26 22 32 22 6 0 15 6 19 13 14
23 201 137 226 137 4 0 16 8 27 18 10 9 49 27 87 40 37 13 77 28 88 33 54 24
334 83 495 103 224 28 399 56 510 81 36 8 89 20 118 26 28 6 52 16 52 20 0 5
11 9 25 9 14 0 25 5 25 10 0 6 6 10 14 10 7 0 43 16 80 35 37 19 73 35 81 35
7 0 15 7 19 15 3 8 10 15 16 15 6 0 28 16 48 35 20 19 40 35 43 35 8 0 89 78
89 85 0 3 15 26 34 52 105 148 157 317 161 528 3 114 -12 236 -44 350 -6 24
-6 35 1 35 14 0 262 -151 266 -162 2 -4 10 -8 18 -8 8 0 14 -4 14 -10 0 -5 6
-10 14 -10 8 0 21 -6 28 -12 7 -7 29 -21 48 -30 38 -18 92 -50 100 -58 3 -3
37 -21 75 -40 39 -19 72 -38 75 -41 3 -4 16 -10 30 -14 14 -4 27 -11 30 -14 3
-3 43 -22 90 -40 47 -19 89 -38 95 -43 5 -4 15 -8 21 -8 7 0 25 -5 41 -12 51
-21 207 -59 283 -69 41 -6 140 -9 220 -6 140 4 150 5 275 48 72 24 132 46 135
50 3 3 21 14 40 24 67 34 125 79 195 151 82 83 126 153 163 256 23 64 26 88
27 203 0 154 -18 225 -95 372 -78 149 -185 289 -402 526 l-53 58 -209 -485
-210 -486 -123 0 c-117 0 -124 1 -118 19 3 10 39 97 80 192 41 95 75 178 75
185 0 9 -149 392 -297 762 -4 10 24 12 132 10 l138 -3 85 -253 c47 -139 88
-250 92 -245 11 12 180 471 180 489 0 8 -22 42 -49 77 -234 299 -393 702 -431
1095 -14 144 -31 225 -66 322 -77 216 -204 380 -402 520 -340 239 -771 410
-1037 410 -270 0 -621 -138 -910 -359 -84 -64 -275 -251 -353 -346 -36 -44
-69 -84 -74 -90 -4 -5 -8 171 -7 390 0 398 -6 513 -37 664 -46 221 -153 451
-270 581 -132 146 -443 344 -657 419 -206 72 -450 92 -637 51z m227 -3408 c47
-26 73 -106 53 -166 -25 -76 -106 -112 -185 -82 -58 23 -85 66 -85 135 0 44 5
56 33 87 47 52 117 61 184 26z m2303 -217 l0 -95 80 0 80 0 0 -100 0 -100 -80
0 -80 0 0 -179 c0 -146 3 -181 15 -191 8 -7 44 -15 80 -18 l65 -5 0 -100 0
-100 -116 5 c-102 5 -122 9 -172 35 -43 22 -63 39 -82 73 -24 44 -25 52 -28
263 l-3 217 -35 0 -34 0 0 100 0 100 35 0 35 0 0 95 0 95 120 0 120 0 0 -95z
m-2890 -112 c60 -27 108 -76 139 -143 26 -55 26 -57 29 -342 l3 -288 -115 0
-114 0 -4 238 c-3 216 -5 240 -24 277 -28 55 -73 77 -146 72 -44 -2 -64 -9
-84 -28 -52 -48 -54 -60 -54 -319 l0 -240 -120 0 -120 0 0 395 0 395 120 0
120 0 0 -55 0 -54 38 40 c72 78 223 101 332 52z m1474 -12 c77 -38 128 -91
170 -180 29 -63 31 -72 31 -186 0 -114 -2 -123 -31 -186 -43 -89 -93 -142
-172 -181 -59 -29 -76 -33 -147 -33 -66 1 -89 5 -131 27 -28 15 -63 41 -78 58
l-26 32 0 -246 0 -246 -120 0 -120 0 0 585 0 585 120 0 120 0 0 -47 0 -47 28
25 c47 43 62 52 110 66 76 21 171 11 246 -26z m810 8 c79 -29 139 -90 160
-160 9 -29 16 -56 16 -61 0 -4 -56 -8 -125 -8 -104 0 -125 2 -125 15 0 34 -38
55 -98 55 -140 0 -126 -102 18 -129 109 -20 225 -61 262 -91 72 -60 88 -155
42 -248 -59 -119 -233 -176 -414 -138 -130 28 -215 105 -234 214 l-5 32 124 0
c80 0 125 -4 125 -10 0 -6 11 -22 25 -35 49 -50 175 -22 175 39 0 43 -39 62
-195 96 -116 26 -188 61 -220 108 -21 31 -25 49 -25 108 0 61 4 77 28 112 44
66 111 106 212 126 56 11 196 -3 254 -25z m1388 20 c118 -25 225 -106 275
-207 26 -53 28 -65 28 -182 0 -121 -1 -128 -32 -191 -98 -199 -354 -275 -569
-169 -156 77 -238 253 -204 439 16 88 48 146 114 209 100 95 242 132 388 101z
m938 -108 l0 -118 -62 -7 c-75 -7 -117 -31 -140 -76 -16 -30 -18 -66 -18 -257
l0 -223 -120 0 -120 0 0 395 0 395 120 0 120 0 0 -72 0 -71 29 40 c46 63 118
110 174 112 15 1 17 -11 17 -118z m-3980 -286 l0 -395 -120 0 -120 0 0 395 0
395 120 0 120 0 0 -395z"/>
<path d="M5465 5911 c-69 -42 -95 -91 -95 -176 0 -65 12 -101 48 -139 54 -57
133 -71 202 -36 130 66 128 291 -3 354 -47 21 -115 20 -152 -3z"/>
<path d="M7808 5928 c-137 -37 -168 -270 -47 -361 53 -38 135 -39 188 0 83 60
96 236 23 316 -38 42 -106 61 -164 45z"/>
</g>
</svg>
