<svg xmlns="http://www.w3.org/2000/svg" viewBox="0 0 439.68 439.95"><defs><style>.cls-1{fill:#3274ff;}</style></defs><title>blob01</title><g id="Layer_2" data-name="Layer 2"><g id="Layer_1-2" data-name="Layer 1"><path class="cls-1" d="M277.93,15a101.16,101.16,0,0,1,28.38,3.84c43.83,12.73,72.62,62.5,63.54,107.23-3.92,19.28-13.81,37.47-14,57.14-.34,30.15,21.5,55.24,40.15,78.92s36,66.25,25.58,94.53c-7.68,20.76-28.16,33.52-47.47,44.33-17.09,9.57-35.28,19.09-54.85,19.09h-.29c-26.29-.13-49.72-17.44-75.86-20.22a74.5,74.5,0,0,0-7.9-.41c-23,0-45.35,10.13-67.46,17.64-13.09,4.45-27.44,7.86-41.23,7.86-12.14,0-23.85-2.65-33.88-9.56-17.41-12-25-33.84-28.74-54.66S59.14,306.2,50.37,287c-8.25-18.1-22.9-32.85-30.19-51.36-9.83-24.94-4.85-53.77,7.16-77.73S57.87,113.41,76,93.7C105.33,60,161.37,43.9,203.29,30.5,227.47,22.77,252.93,15,277.93,15m0-15c-26.32,0-52.49,7.67-79.21,16.21l-8.15,2.59C148,32.3,95.08,49.08,64.87,83.69c-16.76,18.17-37.56,40.77-50.93,67.45-15.36,30.63-18.17,63.42-7.71,90,4.5,11.42,11.06,21.07,17.4,30.41,5,7.39,9.77,14.38,13.09,21.67,5.09,11.17,7.32,30.31,9.28,47.2,1,8.29,1.87,16.13,3.1,23,5.5,30.88,16.95,51.94,35,64.38,11.75,8.1,26,12.21,42.39,12.21,13.85,0,28.91-2.83,46.05-8.65,4.5-1.53,9-3.16,13.37-4.74,17.17-6.22,33.39-12.1,49.26-12.1a59.83,59.83,0,0,1,6.31.33c10.09,1.08,20.32,5,31.15,9.08,14.41,5.48,29.31,11.15,46.23,11.23h.37c22.78,0,42.41-9.93,62.18-21,21.29-11.92,44.8-26.77,54.21-52.21,5.94-16,5.37-36.34-1.63-58.68a163.42,163.42,0,0,0-26.24-50.34l-4.19-5.29c-16.23-20.44-33-41.58-32.75-64.18.11-9.8,3.46-20,7-30.74a206.4,206.4,0,0,0,6.72-23.59C395.26,76.28,361.35,19.21,310.49,4.44A116.73,116.73,0,0,0,277.93,0Z"/></g></g></svg>