<svg xmlns="http://www.w3.org/2000/svg" viewBox="0 0 179.45 197.5"><defs><style>.cls-1,.cls-4{fill:#fff;}.cls-2{fill:#63b1fc;}.cls-3{fill:#fc6560;}.cls-4{opacity:0.6;}</style></defs><title>stap02</title><g id="Layer_2" data-name="Layer 2"><g id="Layer_17" data-name="Layer 17"><path class="cls-1" d="M179.45,16.2C143,9.78,104.53,6.42,68,0A684.74,684.74,0,0,1,0,154.83c35.41,7.55,85.3,16.29,121.31,19.82v-.24C151.35,126.35,169.27,71.5,179.45,16.2Z"/><polygon class="cls-2" points="155.36 33.51 78.89 20.87 80.35 16.72 156.82 29.36 155.36 33.51"/><polygon class="cls-2" points="151.7 43.9 75.23 31.26 76.7 27.11 153.16 39.74 151.7 43.9"/><polygon class="cls-2" points="148.04 54.29 71.57 41.65 73.04 37.49 149.5 50.13 148.04 54.29"/><polygon class="cls-2" points="109.72 59.33 67.92 52.03 69.38 47.88 111.18 55.18 109.72 59.33"/><polygon class="cls-2" points="134.13 89.6 59.14 76.97 60.6 72.81 135.6 85.45 134.13 89.6"/><polygon class="cls-2" points="130.48 99.99 55.48 87.35 56.94 83.2 131.94 95.84 130.48 99.99"/><polygon class="cls-2" points="103.97 106.73 51.82 97.74 53.28 93.58 105.43 102.58 103.97 106.73"/><polygon class="cls-2" points="118.04 136.78 43.04 122.67 44.5 118.52 119.5 132.62 118.04 136.78"/><polygon class="cls-2" points="114.38 147.16 39.38 133.06 40.85 128.9 115.84 143.01 114.38 147.16"/><polygon class="cls-2" points="67.79 149.77 35.72 143.44 37.19 139.29 69.25 145.62 67.79 149.77"/><path class="cls-3" d="M125.38,131.69a23.86,23.86,0,1,0-23.86,23.86c.7,0,1.39,0,2.08-.1l10.19,38.42a4.87,4.87,0,0,0,6,3.46h0a4.87,4.87,0,0,0,3.46-6l-10.27-38.73A23.85,23.85,0,0,0,125.38,131.69Zm-38.91,0a15.05,15.05,0,1,1,15.05,15.05A15.05,15.05,0,0,1,86.47,131.69Z"/><circle class="cls-4" cx="101.52" cy="131.69" r="15.05"/></g></g></svg>