<svg id="Layer_1" data-name="Layer 1" xmlns="http://www.w3.org/2000/svg" viewBox="0 0 179.45 197.5"><title>ht-1</title><path d="M281.8,126.84c-36.5-6.42-74.92-9.78-111.41-16.2a684.74,684.74,0,0,1-68,154.83c35.41,7.55,85.3,16.29,121.31,19.82V285C253.7,237,271.62,182.14,281.8,126.84Z" transform="translate(-102.35 -110.64)" style="fill:#fff"/><polygon points="155.36 33.51 78.89 20.87 80.35 16.72 156.82 29.36 155.36 33.51" style="fill:#5faaff"/><polygon points="151.7 43.9 75.23 31.26 76.7 27.11 153.16 39.74 151.7 43.9" style="fill:#5faaff"/><polygon points="148.04 54.29 71.57 41.65 73.04 37.49 149.5 50.13 148.04 54.29" style="fill:#5faaff"/><polygon points="109.72 59.33 67.92 52.03 69.38 47.88 111.18 55.18 109.72 59.33" style="fill:#5faaff"/><polygon points="134.13 89.6 59.14 76.97 60.6 72.81 135.6 85.45 134.13 89.6" style="fill:#5faaff"/><polygon points="130.48 99.99 55.48 87.35 56.94 83.2 131.94 95.84 130.48 99.99" style="fill:#5faaff"/><polygon points="103.97 106.73 51.82 97.74 53.28 93.58 105.43 102.58 103.97 106.73" style="fill:#5faaff"/><polygon points="118.04 136.78 43.04 122.67 44.5 118.52 119.5 132.62 118.04 136.78" style="fill:#5faaff"/><polygon points="114.38 147.16 39.38 133.06 40.85 128.9 115.84 143.01 114.38 147.16" style="fill:#5faaff"/><polygon points="67.79 149.77 35.72 143.44 37.19 139.29 69.25 145.62 67.79 149.77" style="fill:#5faaff"/><path d="M227.74,242.33a23.86,23.86,0,1,0-23.86,23.86c.7,0,1.39,0,2.08-.1l10.19,38.42a4.87,4.87,0,0,0,6,3.46h0a4.87,4.87,0,0,0,3.46-6l-10.27-38.73A23.85,23.85,0,0,0,227.74,242.33Zm-38.91,0a15.05,15.05,0,1,1,15.05,15.05A15.05,15.05,0,0,1,188.82,242.33Z" transform="translate(-102.35 -110.64)" style="fill:#ff7e7b"/><circle cx="101.52" cy="131.69" r="15.05" style="fill:#fff;opacity:0.6000000000000001"/></svg>