<svg id="Layer_1" data-name="Layer 1" xmlns="http://www.w3.org/2000/svg" xmlns:xlink="http://www.w3.org/1999/xlink" viewBox="0 0 132.99 204.36"><defs><clipPath id="clip-path" transform="translate(-132.96 -97.9)"><path d="M258.73,195.67a107.57,107.57,0,0,1-14.62,0c-6.91-.58-30.43-2.51-44.65,6.38-14.23-8.89-37.74-7-44.65-6.38a107.57,107.57,0,0,1-14.62,0l-.4,82.52s8.1,0,17.58-.39c18.41-.39,26.16.64,31,1.93,5.65,1.72,11,6.17,11.06,6.18h0s5.41-4.46,11.06-6.18c4.86-1.29,12.61-2.33,31-1.93,9.48.39,17.58.39,17.58.39Z" style="fill:#fff"/></clipPath></defs><title>ht-2</title><polygon id="_Path_" data-name="&lt;Path&gt;" points="132.99 108.38 132.99 189.38 66.49 189.38 66.49 113.04 125.56 108.38 132.99 108.38" style="fill:#ffce71"/><polygon id="_Path_2" data-name="&lt;Path&gt;" points="0 108.38 0 189.38 66.49 189.38 66.49 113.04 7.43 108.38 0 108.38" style="fill:#ffce71"/><g id="_Group_" data-name="&lt;Group&gt;"><path d="M258.73,195.67a107.57,107.57,0,0,1-14.62,0c-6.91-.58-30.43-2.51-44.65,6.38-14.23-8.89-37.74-7-44.65-6.38a107.57,107.57,0,0,1-14.62,0l-.4,82.52s8.1,0,17.58-.39c18.41-.39,26.16.64,31,1.93,5.65,1.72,11,6.17,11.06,6.18h0s5.41-4.46,11.06-6.18c4.86-1.29,12.61-2.33,31-1.93,9.48.39,17.58.39,17.58.39Z" transform="translate(-132.96 -97.9)" style="fill:#fff"/></g><g id="_Group_2" data-name="&lt;Group&gt;"><path d="M258.73,195.67a107.57,107.57,0,0,1-14.62,0c-6.91-.58-30.43-2.51-44.65,6.38-14.23-8.89-37.74-7-44.65-6.38a107.57,107.57,0,0,1-14.62,0l-.4,82.52s8.1,0,17.58-.39c18.41-.39,26.16.64,31,1.93,5.65,1.72,11,6.17,11.06,6.18h0s5.41-4.46,11.06-6.18c4.86-1.29,12.61-2.33,31-1.93,9.48.39,17.58.39,17.58.39Z" transform="translate(-132.96 -97.9)" style="fill:#fff"/><g style="clip-path:url(#clip-path)"><line id="_Path_3" data-name="&lt;Path&gt;" x1="66.49" y1="88.21" x2="66.49" y2="204.36" style="fill:none;stroke:#ffaa2e;stroke-miterlimit:10;stroke-width:3.91768390703686px"/></g></g><rect x="145.35" y="153.68" width="13.05" height="5.45" rx="2.72" ry="2.72" transform="translate(169.57 216.08) rotate(-179.55)" style="fill:#ffce71"/><rect x="154.87" y="180.35" width="13.05" height="5.45" rx="2.72" ry="2.72" transform="translate(-202.26 5.53) rotate(-29.55)" style="fill:#ffce71"/><rect x="230.95" y="179.39" width="13.05" height="5.45" rx="2.72" ry="2.72" transform="translate(-7.94 -193.12) rotate(30.45)" style="fill:#ffce71"/><rect x="239.91" y="152.57" width="13.05" height="5.45" rx="2.72" ry="2.72" transform="translate(-131.75 -99.81) rotate(0.45)" style="fill:#ffce71"/><rect x="235.57" y="126.93" width="13.05" height="5.45" rx="2.72" ry="2.72" transform="translate(-165.41 38.38) rotate(-29.55)" style="fill:#ffce71"/><rect x="217.86" y="108.59" width="13.05" height="5.45" rx="2.72" ry="2.72" transform="translate(-118.24 150.45) rotate(-59.55)" style="fill:#ffce71"/><rect x="192.08" y="101.7" width="13.05" height="5.45" rx="2.72" ry="2.72" transform="translate(-40.33 204.31) rotate(-89.55)" style="fill:#ffce71"/><rect x="166.44" y="109.15" width="13.05" height="5.45" rx="2.72" ry="2.72" transform="translate(28 219.61) rotate(-119.55)" style="fill:#ffce71"/><rect x="149.14" y="127.89" width="13.05" height="5.45" rx="2.72" ry="2.72" transform="matrix(-0.86, -0.51, 0.51, -0.86, 90.71, 224.2)" style="fill:#ffce71"/><path d="M185.83,185.5v13.83c0,1.85.47,3,2.32,3H208.9c1.85,0,2.81-1.15,2.81-3V185.67a21.42,21.42,0,0,1,6.48-14.93,28,28,0,1,0-47.68-19.81c0,7.67,3.61,14.62,8.6,19.68C183,174.59,185.83,179.92,185.83,185.5Z" transform="translate(-132.96 -97.9)" style="fill:#fff"/><path d="M191.43,181.08V155.86a.44.44,0,0,1,.76-.29l2.35,2.65a.72.72,0,0,0,1.21-.22l2.8-7.23a.44.44,0,0,1,.82,0l2.8,7.23a.72.72,0,0,0,1.21.22l2.35-2.65a.44.44,0,0,1,.76.29v25.21" transform="translate(-132.96 -97.9)" style="fill:none;stroke:#5faaff;stroke-miterlimit:10;stroke-width:3.57327012295593px"/><path d="M190.82,180.69h16.83a5.09,5.09,0,0,1,5.09,5.09v18.72a0,0,0,0,1,0,0h-28a0,0,0,0,1,0,0V186.73A6,6,0,0,1,190.82,180.69Z" transform="translate(264.58 287.3) rotate(180)" style="fill:#5faaff"/></svg>