<svg id="Layer_1" data-name="Layer 1" xmlns="http://www.w3.org/2000/svg" xmlns:xlink="http://www.w3.org/1999/xlink" viewBox="0 0 189.36 174.98"><defs><clipPath id="clip-path" transform="translate(-105.42 -112.19)"><path id="_Clipping_Path_" data-name="&lt;Clipping Path&gt;" d="M266.13,184.6,158.72,286.91c-5.36-1.67-9.19-6.49-11.87-11.42L253.7,173.66l21.86-9.38Z" style="fill:#fff"/></clipPath></defs><title>ht-3</title><path d="M224.9,145a23.15,23.15,0,0,1,2.75-14.56,16.32,16.32,0,0,1,4.58-5.51c2.82-2,6.39-2.72,9.85-3.15s7-.68,10.21-2,6.08-4.12,6.46-7.59c2.14,3.18,2.48,7.1,2,10.9a40.42,40.42,0,0,1-5,15,27,27,0,0,1-11.43,10.77,20.28,20.28,0,0,1-15.5.93" transform="translate(-105.42 -112.19)" style="fill:#5faaff"/><path d="M220.39,144.05c-40.51,26.18-89.52,63.81-114.47,104.48a3.26,3.26,0,0,0,4.06,4.69c43.64-18.71,83-54.4,121.23-98.36" transform="translate(-105.42 -112.19)" style="fill:#fff"/><rect x="216.37" y="145.86" width="19.75" height="5.41" rx="2.7" ry="2.7" transform="translate(65.89 -228.66) rotate(45)" style="fill:#ffa59f"/><path d="M266,184.77s-8.48-3.36-12.35-11.12l-107,102s3.82,9.56,11.89,11.56Z" transform="translate(-105.42 -112.19)" style="fill:#fff"/><path id="_Clipping_Path_2" data-name="&lt;Clipping Path&gt;" d="M266.13,184.6,158.72,286.91c-5.36-1.67-9.19-6.49-11.87-11.42L253.7,173.66l21.86-9.38Z" transform="translate(-105.42 -112.19)" style="fill:#fff"/><g style="clip-path:url(#clip-path)"><path d="M250.29,165.46A29.4,29.4,0,0,0,266,184.77c2.92,1.39,6.37,2.11,9.46,1.18,3.84-1.16,6.35-4.95,7.49-8.8,1.7-5.75,1-12-.85-17.69-1-3.07-2.52-6.2-5.25-7.93s-6-1.76-9-1.29a28.86,28.86,0,0,0-20.72,14.56" transform="translate(-105.42 -112.19)" style="fill:#ffa59f"/><path d="M260.84,157.42c3.07,7.79,1.74,18.46,16.85,18.37,3.23,0,6.48,1.74,9.51.63,3.77-1.38,6.05-5.31,7-9.22,1.36-5.84.34-12-1.87-17.61-1.19-3-2.87-6-5.7-7.61s-6-1.41-9.08-.77a28.86,28.86,0,0,0-19.84,15.73" transform="translate(-105.42 -112.19)" style="fill:#5faaff"/><path d="M253.7,173.66l-107,102s6,11,12.35,11.12l107-102S257.57,181.41,253.7,173.66Z" transform="translate(-105.42 -112.19)" style="fill:#fff"/></g></svg>