<svg id="Layer_1" data-name="Layer 1" xmlns="http://www.w3.org/2000/svg" xmlns:xlink="http://www.w3.org/1999/xlink" viewBox="0 0 295.99 295.99"><title>logo</title><g id="Layer_2" data-name="Layer 2"><g id="home"><image width="297" height="297" xlink:href="31F345F4C3F3DFD9.png" style="opacity:0.800000011920929;isolation:isolate"/><circle id="_Clipping_Path_" data-name=" Clipping Path " cx="147.9" cy="147.9" r="121" style="fill:#fff"/><path d="M257,174.6c2.2-12.7-10.5-22.2-18.5-32.2a54.22,54.22,0,0,1-11.6-29.3,26.32,26.32,0,0,0-10.6-19.4c-8.9-6.5-20.9-11.5-28.2-10.9-11.5,1-21.8,7.9-29.4,16.7S146,118.7,141,129c-5.4,10.9-10.2,25.4-1.6,34,9.2,9.2,24.8,2.8,37.8,3.7,10.3.7,19.4,6.3,28.2,11.7s18,11,28.2,11.6S255.3,184.7,257,174.6Z" style="fill:#5faaff"/><g id="aENSbB"><image id="aENSbB-2" width="311" height="270" transform="translate(134.82 83.67) scale(0.4 0.4)" xlink:href="31F345F4C3F3DFDB.png" style="isolation:isolate"/></g><path d="M191.7,161.8c-10.2-10.5-25-14.8-39.1-18.8-12-3.4-38.4-9.7-52.2-18.1-9-5.5-21-2.4-25.4,7.2-.4.9-.7,1.8-1,2.7-2.6,8.8-.4,18.3,2.4,27s6.5,17.4,7,26.5c.6,10.3-2.8,20.3-3.8,30.5s1.3,22,10,27.5c10.8,6.9,25.2.4,34.6-8.2s17.1-19.9,28.9-24.8c13.5-5.6,30.9-2.2,41.4-12.3S201.9,172.2,191.7,161.8Z" style="fill:#ffa59f"/><g id="liJHTT"><image id="liJHTT-2" width="332" height="327" transform="translate(72.86 122.38) scale(0.39 0.39)" xlink:href="31F345F4C3F3DFDE.png" style="isolation:isolate"/></g><path d="M147.5,61.1c-24.6-21.9-43.6-8.6-51.8,2.1S83.5,87.5,75.5,98.4c-4.7,6.4-10.6,11.7-15.6,17.8s-9.1,13.5-9,21.4,5.4,16.1,13.2,17.2c12,1.7,20.1-12.4,31.6-16,16-5,34.3,11.1,49,3.1,11.4-6.2,11.9-22.2,10.8-35.2-1.2-15.3,3.6-31.5-8-45.6" style="fill:#ffce71"/><g id="rfsypy"><image id="rfsypy-2" width="247" height="287" transform="translate(72.32 38.09) rotate(12.53) scale(0.4)" xlink:href="31F345F4C3F3DFDF.png" style="isolation:isolate"/></g><g style="isolation:isolate"><path d="M77,142.1a2.88,2.88,0,0,0-1.9.6,2.06,2.06,0,0,0-.7,1.7,2.14,2.14,0,0,0,.7,1.8,4.58,4.58,0,0,0,1.8,1.1c.7.2,1.5.5,2.4.7a27.58,27.58,0,0,1,2.7.8,9,9,0,0,1,2.4,1.2,5.86,5.86,0,0,1,1.8,2,6.17,6.17,0,0,1,.7,3.1,7,7,0,0,1-2.6,5.4,10,10,0,0,1-6.8,2.3,11,11,0,0,1-6.8-2,7.1,7.1,0,0,1-2.6-5.8h6.5c.2,2,1.2,3,3.1,3a2.82,2.82,0,0,0,2.1-.7,2.41,2.41,0,0,0,.7-1.8,2.06,2.06,0,0,0-.7-1.7,4.58,4.58,0,0,0-1.8-1.1,13.7,13.7,0,0,0-2.4-.7,27.58,27.58,0,0,1-2.7-.8,9,9,0,0,1-2.4-1.2,5.86,5.86,0,0,1-1.8-2,6.17,6.17,0,0,1-.7-3.1,7,7,0,0,1,2.6-5.6,10,10,0,0,1,6.6-2.1,10.66,10.66,0,0,1,6.5,1.8c1.7,1.2,2.5,3.2,2.6,5.8H79.7a3.4,3.4,0,0,0-.9-2.1A3,3,0,0,0,77,142.1Z" style="fill:#fff"/><path d="M97.7,142.8v2.9a6.53,6.53,0,0,1,6-3.1,7.16,7.16,0,0,1,5.5,2.3,8.79,8.79,0,0,1,2.1,6.2v11.6h-6.1V151.9a4,4,0,0,0-1-3,4.11,4.11,0,0,0-5.6,0,4,4,0,0,0-1,3v10.8H91.5V142.8Z" style="fill:#fff"/><path d="M122.1,140.6a3.5,3.5,0,0,1-6-2.5,3.17,3.17,0,0,1,1-2.5,3.5,3.5,0,0,1,6,2.5A3.47,3.47,0,0,1,122.1,140.6Zm-5.6,22.1V142.8h6.1v19.9Z" style="fill:#fff"/><path d="M134,145.4a6.72,6.72,0,0,1,5.8-2.8,8.37,8.37,0,0,1,6.4,2.9,10.23,10.23,0,0,1,2.6,7.3,10.51,10.51,0,0,1-2.6,7.3,8.43,8.43,0,0,1-6.4,2.8,6.69,6.69,0,0,1-5.9-3.1v12.4h-6.1V142.8h6.1v2.6Zm7.4,11a5.63,5.63,0,0,0,0-7.2,4.11,4.11,0,0,0-6,0,5.63,5.63,0,0,0,0,7.2,4.11,4.11,0,0,0,6,0Z" style="fill:#fff"/><path d="M151.5,148.8a5.31,5.31,0,0,1,2.2-4.4,9.43,9.43,0,0,1,6.1-1.8,10.58,10.58,0,0,1,6.2,1.7,6.06,6.06,0,0,1,2.5,4.8h-6.2c-.1-.7-.3-1.2-.7-1.4a4,4,0,0,0-1.8-.4q-2.4,0-2.4,1.5c0,.9,1,1.5,2.9,1.8a21.32,21.32,0,0,1,5.4,1.5,4.82,4.82,0,0,1,2.1,1.7,4.41,4.41,0,0,1,.8,2.8,5.18,5.18,0,0,1-2.4,4.5,9.72,9.72,0,0,1-6,1.8,10.93,10.93,0,0,1-6.1-1.7,5.91,5.91,0,0,1-2.6-4.9h6.2c.2,1.2,1,1.8,2.6,1.8a3.45,3.45,0,0,0,1.8-.5,1.46,1.46,0,0,0,.7-1.3q0-.75-1.2-1.2a15.79,15.79,0,0,0-2.8-.8c-1.1-.2-2.2-.5-3.3-.8a6.24,6.24,0,0,1-2.8-1.7A3.48,3.48,0,0,1,151.5,148.8Z" style="fill:#fff"/><path d="M181,157.5h2.2v5.2h-3.1a8.05,8.05,0,0,1-5.2-1.5q-1.8-1.5-1.8-5.1v-8.3h-1.9v-5.1h1.9V138h6.1v4.8h4v5.1h-4v8.3C179.2,157.1,179.8,157.5,181,157.5Z" style="fill:#fff"/><path d="M188.9,160.1a10.63,10.63,0,0,1,0-14.8,10.79,10.79,0,0,1,7.4-2.8,10.35,10.35,0,0,1,7.4,2.8,9.5,9.5,0,0,1,3,7.4,9.65,9.65,0,0,1-3,7.4,10.19,10.19,0,0,1-7.4,2.8A10.51,10.51,0,0,1,188.9,160.1Zm10.4-3.6a6.3,6.3,0,0,0,0-7.4,4.16,4.16,0,0,0-3-1.3,3.74,3.74,0,0,0-2.9,1.3,5.15,5.15,0,0,0-1.2,3.7,4.92,4.92,0,0,0,1.3,3.7,3.8,3.8,0,0,0,3,1.3A4.55,4.55,0,0,0,199.3,156.5Z" style="fill:#fff"/><path d="M216.7,142.8v3.7q2.1-3.9,5.7-3.9v6.2h-1.5a4.4,4.4,0,0,0-3.2,1,4.72,4.72,0,0,0-1.1,3.5v9.4h-6.1V142.8Z" style="fill:#fff"/><path d="M230.9,162.3l-7.7-19.5h6.9l4.4,13,4.8-13h6.4L233,172.2h-6.4Z" style="fill:#fff"/></g></g></g></svg>