<?xml version="1.0" encoding="utf-8"?>
<!-- Generator: Adobe Illustrator 21.1.0, SVG Export Plug-In . SVG Version: 6.00 Build 0)  -->
<svg version="1.1" id="Layer_1" xmlns="http://www.w3.org/2000/svg" xmlns:xlink="http://www.w3.org/1999/xlink" x="0px" y="0px"
	 viewBox="0 0 296 296" style="enable-background:new 0 0 296 296;" xml:space="preserve">
<style type="text/css">
	.st0{fill:#FFFFFF;}
	.st1{fill:#5FAAFF;}
	.st2{fill:#FFA59F;}
	.st3{fill:#FFCE71;}
	.st4{enable-background:new    ;}
</style>
<title>logo</title>
<g>
	<g id="Layer_2">
		<g id="home">
			
				<image style="overflow:visible;opacity:0.8;enable-background:new    ;" width="297" height="297" xlink:href="31F345F4C3F3DFD9.png"  transform="matrix(0.9966 0 0 0.9966 0 0)">
			</image>
			<circle id="_Clipping_Path_" class="st0" cx="147.9" cy="147.9" r="121"/>
			<path class="st1" d="M257,174.6c2.2-12.7-10.5-22.2-18.5-32.2c-6.7-8.4-10.7-18.6-11.6-29.3c-0.5-7.7-4.4-14.8-10.6-19.4
				c-8.9-6.5-20.9-11.5-28.2-10.9c-11.5,1-21.8,7.9-29.4,16.7S146,118.7,141,129c-5.4,10.9-10.2,25.4-1.6,34
				c9.2,9.2,24.8,2.8,37.8,3.7c10.3,0.7,19.4,6.3,28.2,11.7s18,11,28.2,11.6S255.3,184.7,257,174.6z"/>
			<g id="aENSbB">
				
					<image style="overflow:visible;enable-background:new    ;" width="311" height="270" id="aENSbB-2" xlink:href="31F345F4C3F3DFDB.png"  transform="matrix(0.3974 0 0 0.3985 134.82 83.67)">
				</image>
			</g>
			<path class="st2" d="M191.7,161.8c-10.2-10.5-25-14.8-39.1-18.8c-12-3.4-38.4-9.7-52.2-18.1c-9-5.5-21-2.4-25.4,7.2
				c-0.4,0.9-0.7,1.8-1,2.7c-2.6,8.8-0.4,18.3,2.4,27s6.5,17.4,7,26.5c0.6,10.3-2.8,20.3-3.8,30.5s1.3,22,10,27.5
				c10.8,6.9,25.2,0.4,34.6-8.2s17.1-19.9,28.9-24.8c13.5-5.6,30.9-2.2,41.4-12.3S201.9,172.2,191.7,161.8z"/>
			<g id="liJHTT">
				
					<image style="overflow:visible;enable-background:new    ;" width="332" height="327" id="liJHTT-2" xlink:href="31F345F4C3F3DFDE.png"  transform="matrix(0.3888 0 0 0.39 72.86 122.38)">
				</image>
			</g>
			<path class="st3" d="M147.5,61.1c-24.6-21.9-43.6-8.6-51.8,2.1S83.5,87.5,75.5,98.4c-4.7,6.4-10.6,11.7-15.6,17.8
				s-9.1,13.5-9,21.4s5.4,16.1,13.2,17.2c12,1.7,20.1-12.4,31.6-16c16-5,34.3,11.1,49,3.1c11.4-6.2,11.9-22.2,10.8-35.2
				C154.3,91.4,159.1,75.2,147.5,61.1"/>
			<g id="rfsypy">
				
					<image style="overflow:visible;enable-background:new    ;" width="247" height="287" id="rfsypy-2" xlink:href="31F345F4C3F3DFDF.png"  transform="matrix(0.3905 8.678031e-02 -8.678031e-02 0.3905 72.32 38.09)">
				</image>
			</g>
			<g class="st4">
				<path class="st0" d="M77,142.1c-0.8,0-1.4,0.2-1.9,0.6c-0.5,0.4-0.7,1-0.7,1.7c0,0.8,0.2,1.4,0.7,1.8c0.5,0.5,1,0.8,1.8,1.1
					c0.7,0.2,1.5,0.5,2.4,0.7c0.9,0.2,1.8,0.5,2.7,0.8c0.9,0.3,1.7,0.7,2.4,1.2c0.7,0.5,1.3,1.1,1.8,2c0.5,0.9,0.7,1.9,0.7,3.1
					c0,2.1-0.9,3.9-2.6,5.4c-1.7,1.5-4,2.3-6.8,2.3s-5.1-0.7-6.8-2c-1.7-1.4-2.6-3.3-2.6-5.8h6.5c0.2,2,1.2,3,3.1,3
					c0.9,0,1.6-0.2,2.1-0.7c0.5-0.5,0.7-1.1,0.7-1.8c0-0.7-0.2-1.3-0.7-1.7c-0.5-0.5-1-0.8-1.8-1.1c-0.7-0.3-1.5-0.5-2.4-0.7
					c-0.9-0.2-1.8-0.5-2.7-0.8c-0.9-0.3-1.7-0.7-2.4-1.2c-0.7-0.5-1.3-1.1-1.8-2c-0.5-0.9-0.7-1.9-0.7-3.1c0-2.3,0.9-4.2,2.6-5.6
					s3.9-2.1,6.6-2.1s4.9,0.6,6.5,1.8c1.7,1.2,2.5,3.2,2.6,5.8h-6.6c-0.1-0.9-0.4-1.6-0.9-2.1C78.4,142.4,77.8,142.1,77,142.1z"/>
				<path class="st0" d="M97.7,142.8v2.9c1.3-2.1,3.3-3.1,6-3.1c2.3,0,4.1,0.8,5.5,2.3c1.4,1.5,2.1,3.6,2.1,6.2v11.6h-6.1v-10.8
					c0-1.3-0.3-2.3-1-3c-0.7-0.7-1.6-1.1-2.8-1.1s-2.1,0.4-2.8,1.1c-0.7,0.7-1,1.7-1,3v10.8h-6.1v-19.9H97.7z"/>
				<path class="st0" d="M122.1,140.6c-0.7,0.7-1.5,1-2.5,1s-1.8-0.3-2.5-1c-0.7-0.7-1-1.5-1-2.5c0-1,0.3-1.9,1-2.5
					c0.7-0.7,1.5-1,2.5-1s1.8,0.3,2.5,1c0.7,0.7,1,1.5,1,2.5C123.1,139,122.8,139.9,122.1,140.6z M116.5,162.7v-19.9h6.1v19.9H116.5
					z"/>
				<path class="st0" d="M134,145.4c1.4-1.9,3.3-2.8,5.8-2.8c2.5,0,4.7,1,6.4,2.9c1.8,1.9,2.6,4.4,2.6,7.3c0,3-0.9,5.4-2.6,7.3
					c-1.8,1.9-3.9,2.8-6.4,2.8c-2.5,0-4.5-1-5.9-3.1v12.4h-6.1v-29.4h6.1V145.4z M141.4,156.4c0.9-0.8,1.3-2,1.3-3.6
					s-0.4-2.8-1.3-3.6c-0.9-0.9-1.9-1.3-3-1.3c-1.1,0-2.1,0.4-3,1.3c-0.9,0.8-1.3,2-1.3,3.6c0,1.6,0.4,2.8,1.3,3.6
					c0.9,0.9,1.9,1.3,3,1.3C139.5,157.7,140.5,157.3,141.4,156.4z"/>
				<path class="st0" d="M151.5,148.8c0-1.8,0.7-3.2,2.2-4.4s3.5-1.8,6.1-1.8s4.6,0.6,6.2,1.7c1.6,1.2,2.4,2.8,2.5,4.8h-6.2
					c-0.1-0.7-0.3-1.2-0.7-1.4c-0.4-0.2-1-0.4-1.8-0.4c-1.6,0-2.4,0.5-2.4,1.5c0,0.9,1,1.5,2.9,1.8c2,0.3,3.8,0.8,5.4,1.5
					c0.8,0.3,1.5,0.9,2.1,1.7c0.6,0.8,0.8,1.7,0.8,2.8c0,1.9-0.8,3.4-2.4,4.5c-1.6,1.2-3.6,1.8-6,1.8c-2.4,0-4.4-0.6-6.1-1.7
					c-1.6-1.1-2.5-2.7-2.6-4.9h6.2c0.2,1.2,1,1.8,2.6,1.8c0.7,0,1.3-0.2,1.8-0.5c0.5-0.3,0.7-0.8,0.7-1.3c0-0.5-0.4-0.9-1.2-1.2
					s-1.7-0.6-2.8-0.8c-1.1-0.2-2.2-0.5-3.3-0.8c-1.1-0.3-2-0.9-2.8-1.7C151.8,151.1,151.5,150.1,151.5,148.8z"/>
				<path class="st0" d="M181,157.5h2.2v5.2h-3.1c-2.2,0-4-0.5-5.2-1.5c-1.2-1-1.8-2.7-1.8-5.1v-8.3h-1.9v-5.1h1.9V138h6.1v4.8h4
					v5.1h-4v8.3C179.2,157.1,179.8,157.5,181,157.5z"/>
				<path class="st0" d="M188.9,160.1c-2-1.9-3-4.3-3-7.4s1-5.5,3-7.4c2-1.8,4.5-2.8,7.4-2.8s5.4,0.9,7.4,2.8c2,1.8,3,4.3,3,7.4
					s-1,5.5-3,7.4c-2,1.9-4.4,2.8-7.4,2.8C193.4,162.9,191,162,188.9,160.1z M199.3,156.5c0.8-0.9,1.2-2.1,1.2-3.7
					c0-1.6-0.4-2.8-1.2-3.7c-0.8-0.8-1.8-1.3-3-1.3c-1.1,0-2.1,0.4-2.9,1.3c-0.8,0.8-1.2,2.1-1.2,3.7c0,1.6,0.4,2.8,1.3,3.7
					c0.8,0.9,1.8,1.3,3,1.3C197.5,157.7,198.5,157.3,199.3,156.5z"/>
				<path class="st0" d="M216.7,142.8v3.7c1.4-2.6,3.3-3.9,5.7-3.9v6.2h-1.5c-1.4,0-2.5,0.3-3.2,1c-0.7,0.7-1.1,1.8-1.1,3.5v9.4
					h-6.1v-19.9H216.7z"/>
				<path class="st0" d="M230.9,162.3l-7.7-19.5h6.9l4.4,13l4.8-13h6.4l-12.7,29.4h-6.4L230.9,162.3z"/>
			</g>
		</g>
	</g>
</g>
</svg>
