<svg xmlns="http://www.w3.org/2000/svg" xmlns:xlink="http://www.w3.org/1999/xlink" viewBox="0 0 189.36 174.98"><defs><style>.cls-1{fill:#fff;}.cls-2{fill:#5faaff;}.cls-3{fill:#ffa59f;}.cls-4{clip-path:url(#clip-path);}</style><clipPath id="clip-path"><path id="_Clipping_Path_" data-name="&lt;Clipping Path&gt;" class="cls-1" d="M160.7,72.41,53.29,174.72c-5.36-1.67-9.19-6.49-11.87-11.42L148.27,61.46l21.86-9.38Z"/></clipPath></defs><title>stap03</title><g id="Layer_2" data-name="Layer 2"><g id="Layer_10" data-name="Layer 10"><path class="cls-2" d="M119.48,32.84a23.15,23.15,0,0,1,2.75-14.56,16.32,16.32,0,0,1,4.58-5.51c2.82-2,6.39-2.72,9.85-3.15s7-.68,10.21-2S153,3.46,153.34,0c2.14,3.18,2.48,7.1,2,10.9a40.42,40.42,0,0,1-5,15,27,27,0,0,1-11.43,10.77,20.28,20.28,0,0,1-15.5.93"/><path class="cls-1" d="M115,31.86C74.46,58,25.44,95.67.49,136.34A3.26,3.26,0,0,0,4.55,141c43.64-18.71,83-54.4,121.23-98.36"/><rect class="cls-3" x="110.95" y="33.66" width="19.75" height="5.41" rx="2.7" ry="2.7" transform="translate(61.1 -74.79) rotate(45)"/><path class="cls-1" d="M160.62,72.58s-8.48-3.36-12.35-11.12l-107,102S45.05,173,53.12,175Z"/><path id="_Clipping_Path_2" data-name="&lt;Clipping Path&gt;" class="cls-1" d="M160.7,72.41,53.29,174.72c-5.36-1.67-9.19-6.49-11.87-11.42L148.27,61.46l21.86-9.38Z"/><g class="cls-4"><path class="cls-3" d="M144.87,53.27a29.4,29.4,0,0,0,15.76,19.31c2.92,1.39,6.37,2.11,9.46,1.18,3.84-1.16,6.35-4.95,7.49-8.8,1.7-5.75,1-12-.85-17.69-1-3.07-2.52-6.2-5.25-7.93s-6-1.76-9-1.29a28.86,28.86,0,0,0-20.72,14.56"/><path class="cls-2" d="M155.42,45.23c3.07,7.79,1.74,18.46,16.85,18.37,3.23,0,6.48,1.74,9.51.63,3.77-1.38,6.05-5.31,7-9.22,1.36-5.84.34-12-1.87-17.61-1.19-3-2.87-6-5.7-7.61s-6-1.41-9.08-.77a28.86,28.86,0,0,0-19.84,15.73"/><path class="cls-1" d="M148.27,61.46l-107,102s6,11,12.35,11.12l107-102S152.14,69.22,148.27,61.46Z"/></g></g></g></svg>