<!-- Generated by IcoMoon.io -->
<svg version="1.1" xmlns="http://www.w3.org/2000/svg" width="24" height="24" viewBox="0 0 24 24">
<title>child_friendly</title>
<path d="M17.016 20.016c0.844 0 1.5-0.656 1.5-1.5s-0.656-1.5-1.5-1.5-1.5 0.656-1.5 1.5 0.656 1.5 1.5 1.5zM8.016 20.016c0.844 0 1.5-0.656 1.5-1.5s-0.656-1.5-1.5-1.5-1.5 0.656-1.5 1.5 0.656 1.5 1.5 1.5zM19.313 15.891c0.703 0.656 1.172 1.594 1.172 2.625 0 1.922-1.547 3.469-3.469 3.469-1.781 0-3.234-1.313-3.469-3h-2.109c-0.234 1.688-1.641 3-3.422 3-1.922 0-3.516-1.547-3.516-3.469 0-1.313 0.75-2.484 1.828-3.094-0.234-0.328-2.109-4.406-2.109-4.406h-2.203v-2.016h3.469l0.938 2.016h14.578c0 1.828-0.656 3.516-1.688 4.875zM12.984 2.016c4.406 0 8.016 3.563 8.016 7.969h-8.016v-7.969z"></path>
</svg>
