<svg xmlns="http://www.w3.org/2000/svg" xmlns:xlink="http://www.w3.org/1999/xlink" viewBox="0 0 185.05 203.89"><defs><style>.cls-1{fill:#fff;}.cls-2,.cls-6{fill:none;}.cls-3{fill:#f8b7b8;}.cls-4{fill:#63b1fc;}.cls-5{clip-path:url(#clip-path);}.cls-6{stroke:#3274ff;stroke-width:3.92px;}.cls-10,.cls-6,.cls-8{stroke-miterlimit:10;}.cls-7{clip-path:url(#clip-path-2);}.cls-8{fill:#ffa59f;stroke:#ffa59f;}.cls-10,.cls-8{stroke-width:2.49px;}.cls-9{clip-path:url(#clip-path-3);}.cls-10{fill:#ffaa2e;stroke:#ffaa2e;}.cls-11{clip-path:url(#clip-path-4);}.cls-12{fill:#ff7e7b;}.cls-13{fill:#ff7348;}</style><clipPath id="clip-path"><path class="cls-1" d="M125.77,9.57a107.57,107.57,0,0,1-14.62,0C104.23,9,80.72,7.05,66.49,15.94,52.27,7.05,28.76,9,21.84,9.57a107.57,107.57,0,0,1-14.62,0l-.4,82.52s8.1,0,17.58-.39c18.41-.39,26.16.64,31,1.93,5.65,1.72,11,6.17,11.06,6.18h0s5.41-4.46,11.06-6.18c4.86-1.29,12.61-2.33,31-1.93,9.48.39,17.58.39,17.58.39Z"/></clipPath><clipPath id="clip-path-2"><rect class="cls-2" x="8.84" y="14.89" width="58" height="58" rx="29" ry="29"/></clipPath><clipPath id="clip-path-3"><rect class="cls-2" x="65.24" y="14.89" width="58" height="58" rx="29" ry="29"/></clipPath><clipPath id="clip-path-4"><path id="_Clipping_Path_" data-name="&lt;Clipping Path&gt;" class="cls-3" d="M185,187.19a129.31,129.31,0,0,1-13.64-43.44c-.81-6.48-1.12-13-2.11-19.47-1.78-11.59-5.75-22.72-9.7-33.77-.91-2.55-1.87-5.18-3.72-7.16s-4.42-2.09-6.91-1c-2,.86-4.44,2.2-4.79,4.37s.8,4.11,1.31,6.25a15.59,15.59,0,0,0-1.73-4.84c-.71-1.54-1.75-2-3.43-2.16a13.24,13.24,0,0,0-4.67.63,9.76,9.76,0,0,0-5.11,4.22c-1.07,1.9-.64,4.13,0,6.2a8.69,8.69,0,0,0-1.84-3.86c-.94-1.16-1.59-1.8-3.08-1.92a14,14,0,0,0-8.06,2.63,7.61,7.61,0,0,0-2.37,6.68,18.39,18.39,0,0,0,2,6,384.8,384.8,0,0,0-17-40.07,13.39,13.39,0,0,0-2.91-4.37,4.66,4.66,0,0,0-4.89-1c-2.47,1.17-2.64,4.58-2.31,7.29,2.25,18.24,10.94,35.13,14,53.26.33,2,.58,4.06-.28,5.85s-4.4,4.1-6.46,4.43a15.3,15.3,0,0,1-6.19-.55c-6.8-1.73-11.72-6.11-17-10.68-2.07-1.78-4.05-3.78-6.6-4.74s-5.91-.48-7.27,1.88c-1,1.8.53,3.8,1.69,5.53s15.41,16.26,17.13,17.43c9.69,6.62,15.59,13.84,26.16,18.92a108.83,108.83,0,0,1,12.7,6.76c6.38,4.07,9.21,11.4,12.05,18.42s4.55,12.28,8.06,19c0,0,14.86-2.07,25-5.73S185,187.19,185,187.19Z"/></clipPath></defs><title>stap01</title><g id="Layer_2" data-name="Layer 2"><g id="postkaart"><polygon id="_Path_" data-name="&lt;Path&gt;" class="cls-4" points="132.99 20.17 132.99 101.18 66.49 101.18 66.49 24.84 125.56 20.17 132.99 20.17"/><polygon id="_Path_2" data-name="&lt;Path&gt;" class="cls-4" points="0 20.17 0 101.18 66.49 101.18 66.49 24.84 7.43 20.17 0 20.17"/><g id="_Group_" data-name="&lt;Group&gt;"><path class="cls-1" d="M125.77,9.57a107.57,107.57,0,0,1-14.62,0C104.23,9,80.72,7.05,66.49,15.94,52.27,7.05,28.76,9,21.84,9.57a107.57,107.57,0,0,1-14.62,0l-.4,82.52s8.1,0,17.58-.39c18.41-.39,26.16.64,31,1.93,5.65,1.72,11,6.17,11.06,6.18h0s5.41-4.46,11.06-6.18c4.86-1.29,12.61-2.33,31-1.93,9.48.39,17.58.39,17.58.39Z"/></g><g id="_Group_2" data-name="&lt;Group&gt;"><path class="cls-1" d="M125.77,9.57a107.57,107.57,0,0,1-14.62,0C104.23,9,80.72,7.05,66.49,15.94,52.27,7.05,28.76,9,21.84,9.57a107.57,107.57,0,0,1-14.62,0l-.4,82.52s8.1,0,17.58-.39c18.41-.39,26.16.64,31,1.93,5.65,1.72,11,6.17,11.06,6.18h0s5.41-4.46,11.06-6.18c4.86-1.29,12.61-2.33,31-1.93,9.48.39,17.58.39,17.58.39Z"/><g class="cls-5"><line id="_Path_3" data-name="&lt;Path&gt;" class="cls-6" x1="66.49" x2="66.49" y2="116.15"/></g></g><g class="cls-7"><circle class="cls-8" cx="37.55" cy="39.37" r="7.12"/><path class="cls-8" d="M43.44,54.95A12.35,12.35,0,0,0,32,55.1c-4.86,2.81-7.37,9.61-7.37,17.56H51.1C51.1,64.55,48.44,57.65,43.44,54.95Z"/></g><g class="cls-9"><circle class="cls-10" cx="93.95" cy="39.37" r="7.12"/><path class="cls-10" d="M99.84,54.95a12.35,12.35,0,0,0-11.48.15C83.5,57.91,81,64.7,81,72.66H107.5C107.5,64.55,104.84,57.65,99.84,54.95Z"/></g><path id="_Clipping_Path_2" data-name="&lt;Clipping Path&gt;" class="cls-3" d="M185,187.19a129.31,129.31,0,0,1-13.64-43.44c-.81-6.48-1.12-13-2.11-19.47-1.78-11.59-5.75-22.72-9.7-33.77-.91-2.55-1.87-5.18-3.72-7.16s-4.42-2.09-6.91-1c-2,.86-4.44,2.2-4.79,4.37s.8,4.11,1.31,6.25a15.59,15.59,0,0,0-1.73-4.84c-.71-1.54-1.75-2-3.43-2.16a13.24,13.24,0,0,0-4.67.63,9.76,9.76,0,0,0-5.11,4.22c-1.07,1.9-.64,4.13,0,6.2a8.69,8.69,0,0,0-1.84-3.86c-.94-1.16-1.59-1.8-3.08-1.92a14,14,0,0,0-8.06,2.63,7.61,7.61,0,0,0-2.37,6.68,18.39,18.39,0,0,0,2,6,384.8,384.8,0,0,0-17-40.07,13.39,13.39,0,0,0-2.91-4.37,4.66,4.66,0,0,0-4.89-1c-2.47,1.17-2.64,4.58-2.31,7.29,2.25,18.24,10.94,35.13,14,53.26.33,2,.58,4.06-.28,5.85s-4.4,4.1-6.46,4.43a15.3,15.3,0,0,1-6.19-.55c-6.8-1.73-11.72-6.11-17-10.68-2.07-1.78-4.05-3.78-6.6-4.74s-5.91-.48-7.27,1.88c-1,1.8.53,3.8,1.69,5.53s15.41,16.26,17.13,17.43c9.69,6.62,15.59,13.84,26.16,18.92a108.83,108.83,0,0,1,12.7,6.76c6.38,4.07,9.21,11.4,12.05,18.42s4.55,12.28,8.06,19c0,0,14.86-2.07,25-5.73S185,187.19,185,187.19Z"/><g class="cls-11"><path class="cls-12" d="M76.93,140.22a2.93,2.93,0,0,1,1.43-4.15c-.24.81-.49,1.42-.71,2.08S77.24,139.43,76.93,140.22Z"/><path class="cls-12" d="M78.49,137.88A2.93,2.93,0,0,1,77.05,142c.24-.81.49-1.42.71-2.08S78.18,138.67,78.49,137.88Z"/><path class="cls-12" d="M80.15,138.08a2.93,2.93,0,0,1-1.43,4.15c.24-.81.49-1.42.71-2.08S79.84,138.86,80.15,138.08Z"/></g><path class="cls-13" d="M98.74,68.61a26.77,26.77,0,0,0-1.65-3.8,3.47,3.47,0,0,0-1.83-1.9,2.94,2.94,0,0,0-2.14.23,3.51,3.51,0,0,0-1.51,1.71c-.67,1.74.21,4,.82,5.73a1.62,1.62,0,0,0,.4.7,1.22,1.22,0,0,0,.9.34c1.49-.35,2.63-1,4.09-1.42.42-.13.89-.32,1-.74A1.37,1.37,0,0,0,98.74,68.61Z"/><path class="cls-13" d="M68.2,124.81c-.83-.93-1.66-1.86-2.54-2.74a7.71,7.71,0,0,0-4.22-2.52,1.85,1.85,0,0,0-.91.07.87.87,0,0,0-.57.67,1.33,1.33,0,0,0,.24.77,30.13,30.13,0,0,0,6.29,7.19c.6-.56,1.23-1.17,1.8-1.75a1.05,1.05,0,0,0,.31-1A1.39,1.39,0,0,0,68.2,124.81Z"/><path class="cls-12" d="M115.53,97.08a23.05,23.05,0,0,0,.32,2.63c.15.84.33,1.68.52,2.51s.4,1.67.57,2.53a21.31,21.31,0,0,1,.49,2.67,9.16,9.16,0,0,1-1.59-2.27,11,11,0,0,1-.94-2.6,9.29,9.29,0,0,1-.22-2.79A5.29,5.29,0,0,1,115.53,97.08Z"/><path class="cls-12" d="M130.43,90.89a6.8,6.8,0,0,0,.09,2.56c.17.84.35,1.66.58,2.47s.48,1.65.69,2.51a12,12,0,0,1,.45,2.7,13.53,13.53,0,0,1-1.53-2.27,11.46,11.46,0,0,1-1-2.55,8.56,8.56,0,0,1-.29-2.8A3.69,3.69,0,0,1,130.43,90.89Z"/><path class="cls-12" d="M144.12,87.12c.73,1.75,1.31,3.38,1.9,5.07.29.84.57,1.68.82,2.54a20,20,0,0,1,.66,2.69,12.07,12.07,0,0,1-2.9-4.75,12.77,12.77,0,0,1-.61-2.73A7.73,7.73,0,0,1,144.12,87.12Z"/><path class="cls-12" d="M98.57,86.24a3.62,3.62,0,0,1,1-1.21,5.05,5.05,0,0,1,1.34-.8,3.66,3.66,0,0,1,3.08.07c-.52.16-1,.25-1.42.4s-.87.28-1.3.46C100.39,85.5,99.56,85.89,98.57,86.24Z"/><path class="cls-12" d="M98.46,87.86c1.12-.54,2.18-.94,3.21-1.43s2-1,3.2-1.47a6.25,6.25,0,0,1-2.78,2.38A6.15,6.15,0,0,1,98.46,87.86Z"/><path class="cls-12" d="M103.7,81.72c-1.11.57-2.16,1-3.2,1.45s-2.06,1-3.23,1.39a6.89,6.89,0,0,1,6.43-2.84Z"/></g></g></svg>